<svg width="510" height="509" viewBox="0 0 510 509" fill="none" xmlns="http://www.w3.org/2000/svg">
<path d="M214.928 153.597L160.576 146.034C130.862 172.189 112.087 210.448 112.087 253.003C112.087 295.558 130.862 333.817 160.576 359.971L214.928 352.409L240.989 253.003L214.928 153.597Z" fill="#A0F6FA"/>
<path d="M349.434 146.023L335.591 145.598V360.407C335.591 360.407 349.434 359.981 349.423 359.97C379.148 333.816 397.912 295.557 397.912 253.002C397.912 210.447 379.148 172.19 349.434 146.023Z" fill="#25BBCC"/>
<path d="M335.591 156.786L295.083 153.598L269.011 253.004L295.083 352.41L335.591 349.222C353.402 323.839 364.285 290.043 364.285 253.004C364.285 215.964 353.402 182.168 335.591 156.786Z" fill="#50D1DD"/>
<path d="M295.083 175.971H214.929C210.143 198.199 207.363 224.645 207.363 253.003C207.363 281.361 210.143 307.807 214.929 330.035H295.083C299.869 307.807 302.637 281.361 302.637 253.003C302.637 224.645 299.869 198.199 295.083 175.971Z" fill="#78E3EC"/>
<path d="M160.577 146.035C176.079 159.683 194.574 170.042 214.929 175.971L255 110.371C218.841 110.371 185.774 123.851 160.577 146.035Z" fill="#F0FEFF"/>
<path d="M256.412 110.382L335.591 156.785C340.422 153.484 345.04 149.894 349.423 146.034C324.562 124.131 292.023 110.718 256.412 110.382Z" fill="#78E3EC"/>
<path d="M256.412 110.382C255.941 110.371 255.471 110.371 255 110.371L295.083 175.971C309.688 171.709 323.329 165.186 335.591 156.786C315.897 128.695 287.719 110.897 256.412 110.382Z" fill="#A0F6FA"/>
<path d="M214.928 330.036C194.573 335.965 176.078 346.324 160.576 359.971C185.773 382.155 218.84 395.635 254.999 395.635L214.928 330.036Z" fill="#F0FEFF"/>
<path d="M349.423 359.971C345.04 356.112 340.422 352.521 335.591 349.221L256.412 395.623C292.023 395.288 324.562 381.875 349.423 359.971Z" fill="#78E3EC"/>
<path d="M295.083 330.036L255 395.635C255.471 395.635 255.941 395.635 256.412 395.624C287.719 395.109 315.897 377.311 335.591 349.222C323.329 340.819 309.688 334.298 295.083 330.036Z" fill="#A0F6FA"/>
<path d="M255 110.371C271.802 110.371 286.597 136.537 295.083 175.971C282.361 179.696 268.91 181.687 255 181.687C241.09 181.687 227.639 179.696 214.928 175.971C223.414 136.537 238.209 110.371 255 110.371Z" fill="#D0FBFD"/>
<path d="M295.083 330.036C286.598 369.469 271.802 395.635 255 395.635C238.209 395.635 223.414 369.469 214.928 330.036C227.639 326.311 241.09 324.319 255 324.319C268.91 324.319 282.361 326.311 295.083 330.036Z" fill="#D0FBFD"/>
<path d="M255.002 101.982C171.565 101.982 103.683 169.731 103.683 253.004C103.683 336.277 171.565 404.026 255.002 404.026C338.439 404.026 406.321 336.277 406.321 253.004C406.321 169.731 338.44 101.982 255.002 101.982ZM389.238 244.614H310.959C310.534 222.292 308.414 200.876 304.791 181.648C320.74 176.088 335.741 167.861 349.134 157.216C372.16 179.76 387.117 210.478 389.238 244.614ZM301.171 340.894C313.651 345.458 325.451 351.87 336.162 359.98C320.979 371.483 303.286 379.84 284.056 384.082C288.716 376.795 292.937 367.571 296.646 356.466C298.289 351.547 299.794 346.335 301.171 340.894ZM280.696 351.159C271.81 377.766 261.596 387.246 255.002 387.246C248.408 387.246 238.195 377.765 229.308 351.159C227.725 346.419 226.275 341.384 224.956 336.11C234.742 333.866 244.816 332.71 255.002 332.71C265.189 332.71 275.262 333.865 285.048 336.11C283.729 341.385 282.279 346.42 280.696 351.159ZM213.358 356.466C217.068 367.57 221.288 376.794 225.948 384.082C206.72 379.84 189.026 371.482 173.844 359.98C184.555 351.87 196.355 345.458 208.835 340.894C210.21 346.335 211.715 351.547 213.358 356.466ZM255.002 315.93C243.622 315.93 232.368 317.214 221.433 319.702C218.178 301.911 216.27 282.097 215.863 261.393H294.142C293.736 282.096 291.827 301.91 288.573 319.702C277.636 317.214 266.382 315.93 255.002 315.93ZM215.863 244.614C216.27 223.911 218.179 204.097 221.433 186.306C232.369 188.794 243.623 190.078 255.002 190.078C266.382 190.078 277.636 188.793 288.571 186.306C291.826 204.097 293.734 223.91 294.14 244.614H215.863ZM208.833 165.114C196.353 160.55 184.553 154.138 173.842 146.027C189.025 134.526 206.718 126.167 225.946 121.925C221.286 129.212 217.065 138.437 213.356 149.542C211.715 154.461 210.21 159.673 208.833 165.114ZM229.309 154.848C238.195 128.241 248.409 118.762 255.003 118.762C261.597 118.762 271.811 128.242 280.697 154.848C282.28 159.588 283.73 164.624 285.049 169.898C275.263 172.141 265.189 173.298 255.003 173.298C244.817 173.298 234.742 172.142 224.957 169.898C226.276 164.623 227.726 159.587 229.309 154.848ZM296.647 149.542C292.937 138.438 288.717 129.213 284.057 121.925C303.285 126.167 320.979 134.525 336.161 146.027C325.45 154.138 313.65 160.55 301.17 165.114C299.794 159.673 298.289 154.461 296.647 149.542ZM160.871 157.216C174.265 167.861 189.265 176.09 205.214 181.648C201.591 200.875 199.471 222.292 199.046 244.614H120.766C122.887 210.477 137.843 179.76 160.871 157.216ZM120.766 261.394H199.045C199.47 283.717 201.589 305.133 205.212 324.36C189.263 329.92 174.262 338.148 160.869 348.792C137.843 326.248 122.887 295.53 120.766 261.394ZM349.135 348.791C335.742 338.147 320.741 329.917 304.792 324.359C308.415 305.133 310.535 283.717 310.959 261.394H389.238C387.117 295.529 372.161 326.248 349.135 348.791Z" fill="#2F5E88"/>
</svg>
